<svg width="13" height="13" viewBox="0 0 13 13" fill="none" xmlns="http://www.w3.org/2000/svg">
<path d="M9.89127 0.565216H3.10866C1.70394 0.565216 0.565186 1.70397 0.565186 3.10869V9.8913C0.565186 11.296 1.70394 12.4348 3.10866 12.4348H9.89127C11.296 12.4348 12.4348 11.296 12.4348 9.8913V3.10869C12.4348 1.70397 11.296 0.565216 9.89127 0.565216Z" stroke="#222222"/>
<path d="M9.81784 3.30115C10.4882 3.30115 11.0363 3.82443 11.076 4.48478L11.0783 4.56156V8.45973C11.0783 9.13005 10.555 9.67816 9.89462 9.71784L9.81784 9.72014H3.18217C2.51184 9.72014 1.96373 9.19686 1.92405 8.53651L1.92175 8.45973V4.56156C1.92175 3.89124 2.44503 3.34313 3.10539 3.30345L3.18217 3.30115H9.81784ZM10.3904 6.03923H2.60879L2.60925 8.45973C2.60925 8.75637 2.8347 9.00035 3.12359 9.02969L3.18217 9.03264H9.81784C10.1145 9.03264 10.3585 8.8072 10.3878 8.51831L10.3908 8.45973L10.3904 6.03923ZM9.36594 7.64582C9.55578 7.64582 9.70969 7.79973 9.70969 7.98957C9.70969 8.1636 9.58037 8.30742 9.41258 8.33019L9.36594 8.33332H8.2201C8.03025 8.33332 7.87635 8.17942 7.87635 7.98957C7.87635 7.81555 8.00567 7.67172 8.17346 7.64896L8.2201 7.64582H9.36594ZM9.81784 3.98865H3.18217C2.88553 3.98865 2.64155 4.21409 2.61221 4.50299L2.60925 4.56156L2.60879 5.35173H10.3904L10.3908 4.56156C10.3908 4.26493 10.1653 4.02094 9.87642 3.99161L9.81784 3.98865Z" fill="#222222"/>
</svg>
