<svg width="13" height="13" viewBox="0 0 13 13" fill="none" xmlns="http://www.w3.org/2000/svg">
<path d="M9.8913 0.565216H3.10869C1.70397 0.565216 0.565216 1.70397 0.565216 3.10869V9.8913C0.565216 11.296 1.70397 12.4348 3.10869 12.4348H9.8913C11.296 12.4348 12.4348 11.296 12.4348 9.8913V3.10869C12.4348 1.70397 11.296 0.565216 9.8913 0.565216Z" stroke="#222222"/>
<g clip-path="url(#clip0_44_177)">
<path d="M9.57339 10.4212H4.44404C3.79116 10.4212 3.46471 10.4212 3.21534 10.2941C2.99599 10.1824 2.81765 10.004 2.70589 9.78468C2.57883 9.53528 2.57883 9.20887 2.57883 8.55597V3.42662M3.74459 8.08966L5.29894 6.53532L6.85328 8.08966L9.1848 5.75814M9.1848 5.75814V7.31249M9.1848 5.75814H7.63046" stroke="#222222" stroke-linecap="round" stroke-linejoin="round"/>
</g>
<defs>
<clipPath id="clip0_44_177">
<rect width="9.32609" height="9.32609" fill="white" transform="translate(1.41306 2.26086)"/>
</clipPath>
</defs>
</svg>
