<svg width="13" height="13" viewBox="0 0 13 13" fill="none" xmlns="http://www.w3.org/2000/svg">
<path d="M9.89127 0.565186H3.10866C1.70394 0.565186 0.565186 1.70394 0.565186 3.10866V9.89127C0.565186 11.296 1.70394 12.4348 3.10866 12.4348H9.89127C11.296 12.4348 12.4348 11.296 12.4348 9.89127V3.10866C12.4348 1.70394 11.296 0.565186 9.89127 0.565186Z" stroke="#222222"/>
<path fill-rule="evenodd" clip-rule="evenodd" d="M3.73431 2.73431C3.88434 2.58429 4.08783 2.5 4.3 2.5H6.7C6.91217 2.5 7.11566 2.58429 7.26568 2.73431C7.41571 2.88434 7.5 3.08783 7.5 3.3V4.1C7.5 4.31217 7.41571 4.51566 7.26568 4.66569C7.11566 4.81571 6.91217 4.9 6.7 4.9H5.9V6.1C5.9 6.32091 5.72091 6.5 5.5 6.5C5.27909 6.5 5.1 6.32091 5.1 6.1V4.9H4.3C4.08783 4.9 3.88434 4.81571 3.73431 4.66569C3.58429 4.51566 3.5 4.31217 3.5 4.1V3.3C3.5 3.08783 3.58429 2.88434 3.73431 2.73431ZM6.7 4.1V3.3H4.3L4.3 4.1H6.7Z" fill="#222222"/>
<path fill-rule="evenodd" clip-rule="evenodd" d="M3.13431 5.74408C3.28434 5.5878 3.48783 5.5 3.7 5.5H9.3C9.51217 5.5 9.71566 5.5878 9.86569 5.74408C10.0157 5.90036 10.1 6.11232 10.1 6.33333V8C10.3209 8 10.5 8.18655 10.5 8.41667V9.66667C10.5 9.88768 10.4157 10.0996 10.2657 10.2559C10.1157 10.4122 9.91217 10.5 9.7 10.5H3.3C3.08783 10.5 2.88434 10.4122 2.73431 10.2559C2.58429 10.0996 2.5 9.88768 2.5 9.66667V8.41667C2.5 8.18655 2.67909 8 2.9 8V6.33333C2.9 6.11232 2.98429 5.90036 3.13431 5.74408ZM3.7 8H9.3V6.33333L3.7 6.33333V8ZM9.7 8.83333H3.3V9.66667H9.7V8.83333Z" fill="#222222"/>
</svg>
