<svg width="14" height="14" viewBox="0 0 14 14" fill="none" xmlns="http://www.w3.org/2000/svg">
<path d="M10.3261 1H3.54348C2.13875 1 1 2.13875 1 3.54348V10.3261C1 11.7308 2.13875 12.8696 3.54348 12.8696H10.3261C11.7308 12.8696 12.8696 11.7308 12.8696 10.3261V3.54348C12.8696 2.13875 11.7308 1 10.3261 1Z" stroke="#222222"/>
<path d="M5.44444 5.05556V4.74444C5.44444 4.30885 5.44444 4.09105 5.52922 3.92467C5.60377 3.77832 5.72277 3.65934 5.86911 3.58477C6.03548 3.5 6.25329 3.5 6.68889 3.5H7.31111C7.74671 3.5 7.96451 3.5 8.13088 3.58477C8.27723 3.65934 8.39622 3.77832 8.47078 3.92467C8.55556 4.09105 8.55556 4.30885 8.55556 4.74444V5.05556M8.16667 8.16667V7M5.83333 8.16667V7M10.4894 6.23245C10.3492 6.36685 8.83333 7.77778 7 7.77778C5.16666 7.77778 3.65081 6.36685 3.51058 6.23245M10.4894 6.23245C10.5 6.41394 10.5 6.63697 10.5 6.92222V8.63333C10.5 9.28674 10.5 9.61341 10.3728 9.863C10.261 10.0825 10.0825 10.261 9.86299 10.3728C9.61343 10.5 9.28673 10.5 8.63333 10.5H5.36667C4.71326 10.5 4.38659 10.5 4.137 10.3728C3.91747 10.261 3.73901 10.0825 3.62717 9.863C3.5 9.61341 3.5 9.28674 3.5 8.63333V6.92222C3.5 6.63697 3.5 6.41394 3.51058 6.23245M10.4894 6.23245C10.4758 5.99826 10.4445 5.83317 10.3728 5.69257C10.261 5.47304 10.0825 5.29457 9.86299 5.18271C9.61343 5.05556 9.28673 5.05556 8.63333 5.05556H5.36667C4.71326 5.05556 4.38659 5.05556 4.137 5.18271C3.91747 5.29457 3.73901 5.47304 3.62717 5.69257C3.55553 5.83317 3.52423 5.99826 3.51058 6.23245" stroke="#222222" stroke-width="0.65" stroke-linecap="round" stroke-linejoin="round"/>
</svg>
