<?xml version="1.0" encoding="utf-8"?>
<!-- Generator: Adobe Illustrator 28.2.0, SVG Export Plug-In . SVG Version: 6.00 Build 0)  -->
<svg version="1.1" id="Layer_1" xmlns="http://www.w3.org/2000/svg" xmlns:xlink="http://www.w3.org/1999/xlink" x="0px" y="0px"
	 viewBox="0 0 800 800" style="enable-background:new 0 0 800 800;" xml:space="preserve">
<style type="text/css">
	.st0{fill:#9E9E9E;}
</style>
<path class="st0" d="M608,336H192c-8.8,0-16,7.2-16,16v240c0,26.4,21.6,48,48,48h352c26.4,0,48-21.6,48-48V352
	C624,343.2,616.8,336,608,336z M320,560c0,8.8-7.2,16-16,16h-32c-8.8,0-16-7.2-16-16v-32c0-8.8,7.2-16,16-16h32c8.8,0,16,7.2,16,16
	V560z M432,560c0,8.8-7.2,16-16,16h-32c-8.8,0-16-7.2-16-16v-32c0-8.8,7.2-16,16-16h32c8.8,0,16,7.2,16,16V560z M432,448
	c0,8.8-7.2,16-16,16h-32c-8.8,0-16-7.2-16-16v-32c0-8.8,7.2-16,16-16h32c8.8,0,16,7.2,16,16V448z M544,448c0,8.8-7.2,16-16,16h-32
	c-8.8,0-16-7.2-16-16v-32c0-8.8,7.2-16,16-16h32c8.8,0,16,7.2,16,16V448z M576,208h-40v-16c0-17.6-14.4-32-32-32s-32,14.4-32,32v16
	H328v-16c0-17.6-14.4-32-32-32s-32,14.4-32,32v16h-40c-26.4,0-48,21.6-48,48v16c0,8.8,7.2,16,16,16h416c8.8,0,16-7.2,16-16v-16
	C624,229.6,602.4,208,576,208z"/>
</svg>
