<svg width="13" height="13" viewBox="0 0 13 13" fill="none" xmlns="http://www.w3.org/2000/svg">
<path d="M9.89127 0.565216H3.10866C1.70394 0.565216 0.565186 1.70397 0.565186 3.10869V9.8913C0.565186 11.296 1.70394 12.4348 3.10866 12.4348H9.89127C11.296 12.4348 12.4348 11.296 12.4348 9.8913V3.10869C12.4348 1.70397 11.296 0.565216 9.89127 0.565216Z" stroke="#222222"/>
<path d="M5.99915 9.75871C6.2264 9.75871 6.41028 9.94356 6.41028 10.1698C6.41011 10.3967 6.22661 10.582 5.99915 10.582C5.77158 10.5819 5.58818 10.3966 5.58801 10.1698C5.58801 9.9436 5.77188 9.75876 5.99915 9.75871Z" fill="#222222" stroke="#222222" stroke-width="0.25"/>
<path d="M6.50024 2.41847C7.82855 2.41859 8.90845 3.49933 8.90845 4.82765C8.90833 6.15594 7.82845 7.23671 6.50024 7.23683C6.44324 7.23683 6.39673 7.2834 6.39673 7.34035V8.46242C6.39673 8.68179 6.21864 8.85986 5.99927 8.85988C5.77988 8.85988 5.60181 8.68181 5.60181 8.46242V7.34035L5.60376 7.29933C5.62461 6.83654 5.99643 6.46478 6.45923 6.44386L6.50024 6.44191C7.39012 6.44179 8.11438 5.71766 8.1145 4.82765C8.1145 3.93762 7.3902 3.21352 6.50024 3.21339C5.61014 3.21339 4.88599 3.93755 4.88599 4.82765C4.88587 5.04687 4.70774 5.225 4.48853 5.22511C4.26921 5.22511 4.09119 5.04694 4.09106 4.82765C4.09106 3.49925 5.17184 2.41847 6.50024 2.41847Z" fill="#222222" stroke="#222222" stroke-width="0.25"/>
</svg>
