<svg width="40" height="40" viewBox="0 0 40 40" fill="none" xmlns="http://www.w3.org/2000/svg">
<circle cx="20" cy="20" r="20" fill="white"/>
<path d="M31.4248 20.6358C31.4248 19.8623 31.3614 19.0856 31.2282 18.3251H20.4382V22.7044H26.6164C26.4889 23.4053 26.2206 24.0729 25.8276 24.667C25.4346 25.2612 24.9251 25.7693 24.33 26.1608V29.0046H28.0172C30.1817 27.0221 31.4248 24.0971 31.4248 20.6358Z" fill="#4285F4"/>
<path d="M20.4398 31.7492C23.524 31.7492 26.1257 30.7417 28.0204 29.0029L24.3349 26.1608C23.3095 26.8547 21.9852 27.2479 20.443 27.2479C17.4595 27.2479 14.9294 25.2459 14.021 22.5549H10.2185V25.4848C11.1766 27.3718 12.6391 28.9562 14.4435 30.0621C16.2479 31.168 18.3235 31.7519 20.4398 31.7492Z" fill="#34A853"/>
<path d="M14.0162 22.555C13.537 21.1428 13.537 19.6121 14.0162 18.2V15.2701H10.2169C9.41684 16.8537 9 18.6032 9 20.3775C9 22.1517 9.41684 23.9012 10.2169 25.4848L14.0162 22.555Z" fill="#FBBC04"/>
<path d="M20.4398 13.5005C22.0691 13.4741 23.6439 14.0865 24.8273 15.2067L28.0935 11.9584C26.0177 10.0247 23.2765 8.96547 20.4398 9.00086C18.3229 8.99818 16.2468 9.58274 14.4423 10.6895C12.6378 11.7963 11.1757 13.382 10.2185 15.2701L14.0145 18.1967C14.918 15.5025 17.453 13.5005 20.4365 13.5005H20.4398Z" fill="#EA4335"/>
</svg>
