<svg width="13" height="13" viewBox="0 0 13 13" fill="none" xmlns="http://www.w3.org/2000/svg">
<path d="M9.89127 0.565216H3.10866C1.70394 0.565216 0.565186 1.70397 0.565186 3.10869V9.8913C0.565186 11.296 1.70394 12.4348 3.10866 12.4348H9.89127C11.296 12.4348 12.4348 11.296 12.4348 9.8913V3.10869C12.4348 1.70397 11.296 0.565216 9.89127 0.565216Z" stroke="#222222"/>
<path fill-rule="evenodd" clip-rule="evenodd" d="M3.76521 3.09805C3.88769 3.22861 3.8875 3.44007 3.76477 3.57037C3.06209 4.31637 2.62791 5.34689 2.62791 6.4859C2.62791 7.63826 3.07231 8.67956 3.78955 9.42753C3.91337 9.55667 3.91534 9.7681 3.79396 9.89982C3.67258 10.0315 3.47381 10.0336 3.34999 9.9045C2.51724 9.03611 2 7.82497 2 6.4859C2 5.16238 2.50534 3.96376 3.32121 3.09759C3.44394 2.96729 3.64273 2.9675 3.76521 3.09805ZM9.26966 3.13029C9.39348 3.00116 9.59223 3.00327 9.71363 3.13498C10.509 3.9981 11 5.18135 11 6.4859C11 7.806 10.4973 9.00182 9.68516 9.86745C9.56268 9.99801 9.36388 9.99824 9.24119 9.86794C9.11846 9.73764 9.11825 9.52617 9.24073 9.39561C9.94018 8.65008 10.3721 7.62196 10.3721 6.4859C10.3721 5.36316 9.95022 4.3459 9.26526 3.60258C9.14387 3.47087 9.14583 3.25941 9.26966 3.13029ZM4.95503 4.47649C5.0735 4.61117 5.06692 4.82252 4.94031 4.94855C4.54309 5.34398 4.30233 5.88483 4.30233 6.47797C4.30233 7.07802 4.54875 7.62467 4.95433 8.02126C5.08198 8.14608 5.09034 8.35733 4.973 8.49315C4.85566 8.62892 4.65705 8.63783 4.52939 8.51301C4.00498 8.0002 3.67442 7.27961 3.67442 6.47797C3.67442 5.68569 3.99736 4.97243 4.51128 4.46084C4.63788 4.33481 4.83655 4.34181 4.95503 4.47649ZM8.0668 4.49342C8.18664 4.36013 8.38535 4.35543 8.51068 4.48293C9.01184 4.99285 9.32558 5.69709 9.32558 6.47797C9.32558 7.26821 9.0043 7.9798 8.49273 8.4911C8.36639 8.61744 8.16768 8.61085 8.04896 8.47641C7.93025 8.34197 7.93644 8.13063 8.06278 8.00434C8.45815 7.60918 8.69767 7.0696 8.69767 6.47797C8.69767 5.89329 8.46372 5.35948 8.07663 4.96562C7.95134 4.83813 7.94695 4.62672 8.0668 4.49342ZM6.7479 5.10026C6.75527 5.10455 6.76263 5.10884 6.77 5.11313C6.87067 5.17175 6.97051 5.23293 7.06055 5.29348C7.16311 5.36244 7.27212 5.44339 7.37915 5.52698C7.38556 5.53198 7.39196 5.53698 7.39833 5.54196C7.56924 5.67535 7.72923 5.80026 7.84234 5.92642C7.97353 6.0727 8.06977 6.25029 8.06977 6.48594C8.06977 6.72155 7.97353 6.89914 7.84234 7.04542C7.72923 7.17158 7.56924 7.29648 7.39833 7.4299C7.39196 7.43489 7.38556 7.43987 7.37915 7.44486C7.27212 7.52844 7.16311 7.6094 7.06055 7.67838C6.97051 7.73889 6.87067 7.80008 6.77 7.85873C6.76263 7.863 6.75527 7.86732 6.7479 7.8716C6.5802 7.9693 6.41728 8.06423 6.27404 8.11348C6.10287 8.17235 5.90487 8.18531 5.71461 8.0486C5.53539 7.91982 5.46202 7.72914 5.42523 7.54737C5.39167 7.38154 5.37898 7.17109 5.36497 6.93864C5.3645 6.93093 5.36404 6.92323 5.36357 6.91553C5.35468 6.76844 5.34884 6.62091 5.34884 6.48594C5.34884 6.35097 5.35468 6.2034 5.36357 6.05631C5.36404 6.04861 5.3645 6.0409 5.36497 6.0332C5.37898 5.80075 5.39167 5.59029 5.42523 5.42447C5.46202 5.24272 5.53539 5.05204 5.71461 4.92323C5.90487 4.78651 6.10287 4.7995 6.27404 4.85837C6.41728 4.90763 6.5802 5.00256 6.7479 5.10026ZM6.06088 5.48776C6.0554 5.50053 6.04736 5.52408 6.03907 5.56507C6.01655 5.67633 6.00609 5.83598 5.99018 6.09915C5.98181 6.23764 5.97674 6.36998 5.97674 6.48594C5.97674 6.60185 5.98181 6.7342 5.99018 6.87269C6.00609 7.13586 6.01655 7.29551 6.03907 7.40679C6.04736 7.44775 6.0554 7.47131 6.06088 7.48409C6.06628 7.48267 6.0729 7.48066 6.08085 7.4779C6.16034 7.45056 6.26993 7.3884 6.46856 7.27279C6.56195 7.21838 6.64965 7.16445 6.72508 7.11373C6.81123 7.05584 6.90755 6.98455 7.00756 6.90644C7.20447 6.75263 7.31791 6.6625 7.38803 6.58435C7.44211 6.52406 7.44199 6.50246 7.44186 6.48772V6.48594V6.48412C7.44199 6.46938 7.44211 6.44778 7.38803 6.38753C7.31791 6.30933 7.20447 6.2192 7.00756 6.0654C6.90755 5.98729 6.81123 5.91604 6.72508 5.85811C6.64965 5.80739 6.56195 5.75346 6.46856 5.69909C6.26993 5.58343 6.16034 5.52126 6.08085 5.49393C6.0729 5.49119 6.06628 5.4892 6.06088 5.48776Z" fill="#222222"/>
</svg>
