<svg width="14" height="14" viewBox="0 0 14 14" fill="none" xmlns="http://www.w3.org/2000/svg">
<path d="M10.3261 1H3.54348C2.13875 1 1 2.13875 1 3.54348V10.3261C1 11.7308 2.13875 12.8696 3.54348 12.8696H10.3261C11.7308 12.8696 12.8696 11.7308 12.8696 10.3261V3.54348C12.8696 2.13875 11.7308 1 10.3261 1Z" stroke="#222222"/>
<g clip-path="url(#clip0_61_384)">
<path d="M4.99957 9.90991H4.64469C4.5499 9.90991 4.47302 9.98675 4.47302 10.0816C4.47302 10.1764 4.5499 10.2533 4.64469 10.2533H4.99957C5.09437 10.2533 5.17125 10.1764 5.17125 10.0816C5.17125 9.98675 5.09437 9.90991 4.99957 9.90991Z" fill="#222222"/>
<path d="M10.2275 3.12891H4.45966C4.03367 3.12891 3.68713 3.47548 3.68713 3.90143V5.44671H3.53218C3.23873 5.44671 3 5.68544 3 5.9789V10.3389C3 10.6323 3.23873 10.8711 3.53218 10.8711H6.11223C6.40569 10.8711 6.64442 10.6323 6.64442 10.3389V9.95546H8.51663H9.27772C9.41993 9.95546 9.53523 9.8402 9.53523 9.69795C9.53523 9.55571 9.41993 9.44045 9.27772 9.44045H8.51663V8.9483H10.2275C10.6535 8.9483 11 8.60173 11 8.17578V3.90143C11 3.47548 10.6535 3.12891 10.2275 3.12891ZM3.53218 5.96173H6.11223C6.12106 5.96173 6.1294 5.97007 6.1294 5.9789V9.37041H3.51501V5.9789C3.51501 5.97007 3.52336 5.96173 3.53218 5.96173ZM6.11223 10.356H3.53218C3.52336 10.356 3.51501 10.3477 3.51501 10.3389V9.71375H6.1294V10.3389C6.1294 10.3477 6.12102 10.356 6.11223 10.356ZM8.00162 9.44045H6.68548V8.9483H8.00162V9.44045ZM10.485 8.17578C10.485 8.31778 10.3695 8.43328 10.2275 8.43328H6.64442V5.9789C6.64442 5.68544 6.40569 5.44671 6.11223 5.44671H4.20215V3.90143C4.20215 3.75942 4.31765 3.64392 4.45966 3.64392H10.2275C10.3695 3.64392 10.485 3.75942 10.485 3.90143V8.17578Z" fill="#222222"/>
</g>
<defs>
<clipPath id="clip0_61_384">
<rect width="8" height="8" fill="white" transform="translate(3 3)"/>
</clipPath>
</defs>
</svg>
