<svg width="13" height="13" viewBox="0 0 13 13" fill="none" xmlns="http://www.w3.org/2000/svg">
<path d="M9.89127 0.565216H3.10866C1.70394 0.565216 0.565186 1.70397 0.565186 3.10869V9.8913C0.565186 11.296 1.70394 12.4348 3.10866 12.4348H9.89127C11.296 12.4348 12.4348 11.296 12.4348 9.8913V3.10869C12.4348 1.70397 11.296 0.565216 9.89127 0.565216Z" stroke="#222222"/>
<path d="M8.94924 2.82608H4.05069C3.37434 2.82608 2.82605 3.37437 2.82605 4.05072V8.94927C2.82605 9.62562 3.37434 10.1739 4.05069 10.1739H8.94924C9.62559 10.1739 10.1739 9.62562 10.1739 8.94927V4.05072C10.1739 3.37437 9.62559 2.82608 8.94924 2.82608Z" stroke="#222222" stroke-linecap="round" stroke-linejoin="round"/>
<path d="M6.07605 2.82608V6.21738L7.20648 5.36956L8.33692 6.21738V2.82608" stroke="#222222" stroke-linecap="round" stroke-linejoin="round"/>
</svg>
