<svg width="13" height="13" viewBox="0 0 13 13" fill="none" xmlns="http://www.w3.org/2000/svg">
<path d="M9.89127 0.565216H3.10866C1.70394 0.565216 0.565186 1.70397 0.565186 3.10869V9.8913C0.565186 11.296 1.70394 12.4348 3.10866 12.4348H9.89127C11.296 12.4348 12.4348 11.296 12.4348 9.8913V3.10869C12.4348 1.70397 11.296 0.565216 9.89127 0.565216Z" stroke="#222222"/>
<path d="M3 5.33333H10M4.55556 3V3.77778M8.44444 3V3.77778M4.16667 6.5H5.72222V8.05556H4.16667V6.5ZM4.24444 10H8.75556C9.19115 10 9.40897 10 9.57533 9.91522C9.72167 9.84067 9.84067 9.72167 9.91522 9.57533C10 9.40897 10 9.19115 10 8.75556V5.02222C10 4.58662 10 4.36883 9.91522 4.20245C9.84067 4.0561 9.72167 3.93712 9.57533 3.86255C9.40897 3.77778 9.19115 3.77778 8.75556 3.77778H4.24444C3.80885 3.77778 3.59105 3.77778 3.42467 3.86255C3.27832 3.93712 3.15934 4.0561 3.08477 4.20245C3 4.36883 3 4.58662 3 5.02222V8.75556C3 9.19115 3 9.40897 3.08477 9.57533C3.15934 9.72167 3.27832 9.84067 3.42467 9.91522C3.59105 10 3.80885 10 4.24444 10Z" stroke="#222222" stroke-width="0.75" stroke-linecap="round" stroke-linejoin="round"/>
</svg>
