<svg width="13" height="13" viewBox="0 0 13 13" fill="none" xmlns="http://www.w3.org/2000/svg">
<path d="M9.89127 0.565216H3.10866C1.70394 0.565216 0.565186 1.70397 0.565186 3.10869V9.8913C0.565186 11.296 1.70394 12.4348 3.10866 12.4348H9.89127C11.296 12.4348 12.4348 11.296 12.4348 9.8913V3.10869C12.4348 1.70397 11.296 0.565216 9.89127 0.565216Z" stroke="#222222"/>
<g clip-path="url(#clip0_96_184)">
<path d="M6.5 8C8.15 8 9.5 6.65 9.5 5C9.5 3.35 8.15 2 6.5 2C4.85 2 3.5 3.35 3.5 5C3.5 6.65 4.85 8 6.5 8ZM6.5 2.75C7.7375 2.75 8.75 3.7625 8.75 5C8.75 6.2375 7.7375 7.25 6.5 7.25C5.2625 7.25 4.25 6.2375 4.25 5C4.25 3.7625 5.2625 2.75 6.5 2.75Z" fill="#222222"/>
<path d="M5 11C5.075 11 5.1125 11 5.15 10.9625L6.5 10.2875L7.85 10.9625C7.9625 11.0375 8.1125 11 8.225 10.9625C8.3 10.8875 8.375 10.7375 8.375 10.625V7.25C8.375 7.025 8.225 6.875 8 6.875C7.775 6.875 7.625 7.025 7.625 7.25V10.025L6.65 9.5375C6.5375 9.5 6.425 9.5 6.3125 9.5375L5.3375 10.025V7.25C5.3375 7.025 5.1875 6.875 4.9625 6.875C4.7375 6.875 4.5875 7.025 4.5875 7.25V10.625C4.5875 10.7375 4.6625 10.8875 4.775 10.9625C4.85 10.9625 4.925 11 5 11Z" fill="#222222"/>
</g>
<defs>
<clipPath id="clip0_96_184">
<rect width="9" height="9" fill="white" transform="matrix(-1 0 0 1 11 2)"/>
</clipPath>
</defs>
</svg>
