<svg width="13" height="13" viewBox="0 0 13 13" fill="none" xmlns="http://www.w3.org/2000/svg">
<path d="M9.8913 0.565216H3.10869C1.70397 0.565216 0.565216 1.70397 0.565216 3.10869V9.8913C0.565216 11.296 1.70397 12.4348 3.10869 12.4348H9.8913C11.296 12.4348 12.4348 11.296 12.4348 9.8913V3.10869C12.4348 1.70397 11.296 0.565216 9.8913 0.565216Z" stroke="#222222"/>
<path d="M8.11392 8.10313L9.60869 9.6087M8.91787 6.1546C8.91787 7.68072 7.68071 8.91788 6.15458 8.91788C4.62846 8.91788 3.3913 7.68072 3.3913 6.1546C3.3913 4.62848 4.62846 3.39131 6.15458 3.39131C7.68071 3.39131 8.91787 4.62848 8.91787 6.1546Z" stroke="#222222" stroke-linecap="round" stroke-linejoin="round"/>
</svg>
