<svg width="13" height="13" viewBox="0 0 13 13" fill="none" xmlns="http://www.w3.org/2000/svg">
<path d="M9.89127 0.565186H3.10866C1.70394 0.565186 0.565186 1.70394 0.565186 3.10866V9.89127C0.565186 11.296 1.70394 12.4348 3.10866 12.4348H9.89127C11.296 12.4348 12.4348 11.296 12.4348 9.89127V3.10866C12.4348 1.70394 11.296 0.565186 9.89127 0.565186Z" stroke="#222222"/>
<path fill-rule="evenodd" clip-rule="evenodd" d="M8.76139 2.84476C8.32635 2.63416 7.79484 2.73431 7.14344 2.96074L3.87771 4.09598C3.22632 4.32242 2.74729 4.57356 2.53669 5.00859C2.32609 5.44363 2.42624 5.97514 2.65268 6.62654L2.7662 6.95311C2.81323 7.08838 2.961 7.15992 3.09628 7.1129C3.41168 7.00326 3.75681 7.17034 3.86645 7.48574C3.97609 7.80114 3.80901 8.14626 3.49361 8.2559C3.35834 8.30293 3.2868 8.45071 3.33382 8.58598C3.56026 9.23737 3.81139 9.7164 4.24643 9.927C4.68147 10.1376 5.21298 10.0375 5.86438 9.81101L9.13011 8.67577C9.78151 8.44933 10.2605 8.1982 10.4711 7.76316C10.6817 7.32812 10.5816 6.79661 10.3551 6.14522L10.2984 5.98193C10.2514 5.84666 10.1036 5.77512 9.96831 5.82214C9.65291 5.93178 9.30778 5.76471 9.19814 5.44931C9.0885 5.13391 9.25558 4.78878 9.57098 4.67914C9.70625 4.63211 9.77779 4.48434 9.73076 4.34907L9.674 4.18578C9.44756 3.53438 9.19643 3.05536 8.76139 2.84476ZM9.16546 4.30297C8.73609 4.57632 8.53392 5.11801 8.70828 5.61959C8.88264 6.12117 9.37722 6.42066 9.88357 6.36874C10.094 6.98907 10.1103 7.31826 10.0043 7.53719C9.89537 7.7623 9.61472 7.95826 8.95982 8.18591L5.69409 9.32115C5.0392 9.54881 4.69751 9.56918 4.47241 9.46021C4.27358 9.36396 4.09749 9.13378 3.90222 8.6301C4.32947 8.35611 4.53024 7.81582 4.3563 7.31545C4.18192 6.8138 3.68722 6.5143 3.1808 6.56633L3.14254 6.45625C2.91488 5.80136 2.89451 5.45967 3.00348 5.23457C3.11246 5.00946 3.3931 4.8135 4.048 4.58584L7.31373 3.4506C7.96863 3.22295 8.31031 3.20258 8.53542 3.31155C8.75434 3.41753 8.9457 3.68589 9.16546 4.30297Z" fill="#222222"/>
<path fill-rule="evenodd" clip-rule="evenodd" d="M8.82685 2.70976C8.33116 2.4698 7.74484 2.59293 7.09429 2.81908L3.82856 3.95432C3.17801 4.18046 2.64174 4.44757 2.40178 4.94325C2.16182 5.43894 2.28495 6.02526 2.51109 6.67581L2.62462 7.00238C2.69884 7.2159 2.93211 7.32882 3.14563 7.2546C3.38278 7.17216 3.64242 7.29785 3.72486 7.53501C3.8073 7.77216 3.6816 8.0318 3.44445 8.11424C3.23093 8.18846 3.11801 8.42173 3.19224 8.63525C3.41838 9.2858 3.68548 9.82207 4.18117 10.062C4.67686 10.302 5.26318 10.1789 5.91373 9.95271L9.17946 8.81748C9.83001 8.59133 10.3663 8.32423 10.6062 7.82854C10.8462 7.33285 10.7231 6.74653 10.4969 6.09598L10.4402 5.9327C10.3659 5.71918 10.1327 5.60625 9.91916 5.68048C9.682 5.76292 9.42236 5.63722 9.33992 5.40007C9.25748 5.16292 9.38318 4.90328 9.62033 4.82084C9.83385 4.74661 9.94677 4.51335 9.87254 4.29983L9.81578 4.13654C9.58964 3.486 9.32253 2.94972 8.82685 2.70976ZM7.19279 3.10245C7.84504 2.87571 8.32174 2.79855 8.69613 2.97979C9.07052 3.16103 9.30568 3.58281 9.53242 4.23505L9.58918 4.39834C9.609 4.45536 9.57884 4.51765 9.52182 4.53747C9.12817 4.67431 8.91971 5.10493 9.05655 5.49858C9.1934 5.89223 9.62401 6.10069 10.0177 5.96384C10.0747 5.94402 10.137 5.97418 10.1568 6.0312L10.2136 6.19449C10.4403 6.84673 10.5175 7.32343 10.3362 7.69782C10.155 8.07221 9.7332 8.30737 9.08096 8.53411L5.81522 9.66935C5.16298 9.89608 4.68628 9.97325 4.31189 9.79201C3.9375 9.61076 3.70234 9.18898 3.4756 8.53674C3.45578 8.47972 3.48594 8.41743 3.54296 8.39761C3.93661 8.26077 4.14507 7.83015 4.00823 7.4365C3.87139 7.04285 3.44077 6.83439 3.04712 6.97123C2.9901 6.99106 2.92781 6.9609 2.90798 6.90388L2.79446 6.5773C2.56773 5.92506 2.49056 5.44836 2.6718 5.07397C2.85304 4.69958 3.27482 4.46442 3.92706 4.23768L7.19279 3.10245ZM7.36308 3.59231C8.01922 3.36422 8.30586 3.36705 8.47016 3.44658C8.61997 3.5191 8.78368 3.71147 8.98531 4.24691C8.56792 4.5732 8.38301 5.14047 8.56669 5.66886C8.75037 6.19725 9.24728 6.52751 9.77707 6.52455C9.95104 7.0696 9.94195 7.32204 9.86943 7.47185C9.78989 7.63614 9.56681 7.81616 8.91067 8.04425L5.64494 9.17949C4.9888 9.40757 4.70215 9.40475 4.53786 9.32521C4.40517 9.26097 4.2595 9.10155 4.08539 8.68352C4.4986 8.3565 4.6809 7.79211 4.49809 7.26622C4.31415 6.7371 3.81614 6.40667 3.28555 6.41054L3.28432 6.40702C3.05623 5.75088 3.05906 5.46424 3.13859 5.29994C3.21813 5.13565 3.44121 4.95563 4.09735 4.72754L7.36308 3.59231ZM8.60087 3.17656C8.31495 3.03814 7.91823 3.08171 7.26458 3.30894L3.99884 4.44418C3.34519 4.6714 3.00698 4.8833 2.86857 5.16923C2.73016 5.45515 2.77373 5.85187 3.00095 6.50552L3.03922 6.6156C3.06205 6.68129 3.12705 6.72267 3.19623 6.71556C3.63507 6.67047 4.0637 6.93027 4.21472 7.36472C4.36536 7.79806 4.19158 8.26642 3.82135 8.50385C3.7613 8.54235 3.73668 8.61782 3.76246 8.68433C3.95955 9.19271 4.15302 9.47222 4.40715 9.59524C4.69307 9.73365 5.08979 9.69008 5.74344 9.46285L9.00917 8.32762C9.66283 8.10039 10.001 7.88849 10.1394 7.60257C10.2743 7.32405 10.2362 6.94112 10.0257 6.32058C10.0032 6.25432 9.93796 6.2124 9.86836 6.21954C9.42959 6.26453 9.00106 6.00475 8.85006 5.57036C8.69906 5.13597 8.87404 4.66639 9.24612 4.42952C9.30513 4.39195 9.33034 4.31857 9.30687 4.25266C9.08704 3.63538 8.87939 3.31138 8.60087 3.17656Z" fill="#222222"/>
<path fill-rule="evenodd" clip-rule="evenodd" d="M4.92204 5.55204C4.85964 5.68094 4.91354 5.83602 5.04245 5.89842L7.68303 7.17672C7.81193 7.23912 7.96701 7.18521 8.02941 7.05631C8.09181 6.9274 8.0379 6.77232 7.909 6.70992L5.26842 5.43163C5.13952 5.36923 4.98444 5.42314 4.92204 5.55204Z" fill="#222222"/>
<path fill-rule="evenodd" clip-rule="evenodd" d="M5.33363 5.29663C5.13017 5.19814 4.88538 5.28323 4.78688 5.4867C4.68838 5.69016 4.77347 5.93495 4.97694 6.03345L7.61752 7.31175C7.82099 7.41024 8.06578 7.32515 8.16428 7.12168C8.26277 6.91822 8.17768 6.67343 7.97421 6.57493L5.33363 5.29663ZM5.0569 5.61741C5.08321 5.56308 5.14858 5.54035 5.20291 5.56666L7.8435 6.84495C7.89783 6.87126 7.92056 6.93663 7.89425 6.99097C7.86795 7.0453 7.80258 7.06803 7.74824 7.04172L5.10766 5.76343C5.05332 5.73712 5.0306 5.67175 5.0569 5.61741Z" fill="#222222"/>
<path fill-rule="evenodd" clip-rule="evenodd" d="M6.16479 7.51041C6.1021 7.33005 5.90506 7.23466 5.7247 7.29736L5.72176 7.29838C5.5414 7.36108 5.44601 7.55812 5.50871 7.73848C5.57141 7.91884 5.76844 8.01423 5.9488 7.95153L5.95174 7.95051C6.13211 7.88781 6.22749 7.69077 6.16479 7.51041Z" fill="#222222"/>
<path fill-rule="evenodd" clip-rule="evenodd" d="M6.30657 7.46118C6.21668 7.20257 5.93415 7.0658 5.67554 7.1557L5.6726 7.15672C5.41399 7.24662 5.27722 7.52914 5.36712 7.78775C5.45702 8.04636 5.73954 8.18313 5.99815 8.09323L6.00109 8.09221C6.2597 8.00231 6.39647 7.71979 6.30657 7.46118ZM5.77405 7.43906C5.87616 7.40357 5.98771 7.45757 6.02321 7.55968C6.0587 7.66179 6.0047 7.77335 5.90259 7.80884L5.89965 7.80986C5.79754 7.84536 5.68599 7.79136 5.65049 7.68925C5.61499 7.58713 5.669 7.47558 5.77111 7.44008L5.77405 7.43906Z" fill="#222222"/>
<path fill-rule="evenodd" clip-rule="evenodd" d="M7.5 5.03312C7.4373 4.85275 7.24026 4.75737 7.0599 4.82007L7.05697 4.82109C6.87661 4.88378 6.78122 5.08082 6.84392 5.26118C6.90662 5.44154 7.10365 5.53693 7.28402 5.47423L7.28695 5.47321C7.46731 5.41052 7.5627 5.21348 7.5 5.03312Z" fill="#222222"/>
<path fill-rule="evenodd" clip-rule="evenodd" d="M7.64154 4.98388C7.55164 4.72527 7.26911 4.5885 7.0105 4.6784L7.00757 4.67942C6.74896 4.76932 6.61219 5.05184 6.70209 5.31045C6.79199 5.56906 7.07451 5.70583 7.33312 5.61593L7.33605 5.61491C7.59467 5.52502 7.73143 5.24249 7.64154 4.98388ZM7.10901 4.96177C7.21112 4.92627 7.32267 4.98027 7.35817 5.08239C7.39366 5.1845 7.33966 5.29605 7.23755 5.33155L7.23462 5.33257C7.13251 5.36806 7.02095 5.31406 6.98546 5.21195C6.94996 5.10984 7.00396 4.99828 7.10607 4.96279L7.10901 4.96177Z" fill="#222222"/>
</svg>
