<svg width="14" height="14" viewBox="0 0 14 14" fill="none" xmlns="http://www.w3.org/2000/svg">
<path d="M10.3261 1H3.54348C2.13875 1 1 2.13875 1 3.54348V10.3261C1 11.7308 2.13875 12.8696 3.54348 12.8696H10.3261C11.7308 12.8696 12.8696 11.7308 12.8696 10.3261V3.54348C12.8696 2.13875 11.7308 1 10.3261 1Z" stroke="#222222"/>
<path d="M6.00578 3.36613C6.57873 2.87796 7.42136 2.87796 7.99423 3.36613C8.2397 3.5754 8.54496 3.70185 8.86652 3.72749C9.61684 3.78735 10.2126 4.38316 10.2725 5.13348C10.2982 5.45505 10.4246 5.7603 10.6339 6.00577C11.122 6.57873 11.122 7.42136 10.6339 7.99422C10.4246 8.2397 10.2982 8.54495 10.2725 8.86652C10.2126 9.61684 9.61684 10.2126 8.86652 10.2725C8.54496 10.2982 8.2397 10.4246 7.99423 10.6339C7.42136 11.122 6.57873 11.122 6.00578 10.6339C5.7603 10.4246 5.45505 10.2982 5.13351 10.2725C4.38318 10.2126 3.78735 9.61684 3.72748 8.86652C3.70182 8.54495 3.57539 8.2397 3.36616 7.99422C2.87795 7.42136 2.87795 6.57873 3.36616 6.00577C3.57539 5.7603 3.70182 5.45505 3.72748 5.13348C3.78736 4.38316 4.38318 3.78735 5.13351 3.72749C5.45505 3.70185 5.7603 3.5754 6.00578 3.36613Z" stroke="#222222" stroke-width="0.75"/>
<path d="M5.5 7.2L6.3571 8L8.5 6" stroke="#222222" stroke-width="0.75" stroke-linecap="round" stroke-linejoin="round"/>
</svg>
