<svg width="13" height="13" viewBox="0 0 13 13" fill="none" xmlns="http://www.w3.org/2000/svg">
<path d="M9.89127 0.565216H3.10866C1.70394 0.565216 0.565186 1.70397 0.565186 3.10869V9.8913C0.565186 11.296 1.70394 12.4348 3.10866 12.4348H9.89127C11.296 12.4348 12.4348 11.296 12.4348 9.8913V3.10869C12.4348 1.70397 11.296 0.565216 9.89127 0.565216Z" stroke="#222222"/>
<path d="M5.79699 5.13572C5.79699 4.93576 5.64532 4.77366 5.45824 4.77366C5.27117 4.77366 5.11951 4.93576 5.11951 5.13572H5.79699ZM7.88096 5.13572C7.88096 4.93576 7.72929 4.77366 7.54221 4.77366C7.35513 4.77366 7.20346 4.93576 7.20346 5.13572H7.88096ZM5.11956 5.12951C5.11634 5.32944 5.26538 5.4943 5.45241 5.49774C5.63949 5.50118 5.79374 5.34188 5.79694 5.14194L5.11956 5.12951ZM5.80146 4.86098C5.80467 4.66104 5.65566 4.49618 5.46858 4.49274C5.28153 4.48931 5.12729 4.6486 5.12407 4.84854L5.80146 4.86098ZM5.78682 5.2238C5.83235 5.02985 5.72215 4.83317 5.54067 4.78453C5.35919 4.73589 5.1752 4.85369 5.12968 5.04765L5.78682 5.2238ZM5.38733 5.43793L5.7151 5.5294L5.71591 5.52601L5.38733 5.43793ZM3.98329 5.77233C3.82955 5.65838 3.6185 5.69922 3.51189 5.86353C3.40529 6.02786 3.44349 6.25345 3.59724 6.36739L3.98329 5.77233ZM4.12899 6.07358C4.13091 5.87362 3.98081 5.70986 3.79374 5.70781C3.60666 5.70576 3.45345 5.86619 3.45153 6.06614L4.12899 6.07358ZM3.76542 8.66083L4.10415 8.66517L4.10415 8.66454L3.76542 8.66083ZM5.5969 10C5.78398 10 5.93565 9.83789 5.93565 9.63793C5.93565 9.43797 5.78398 9.27586 5.5969 9.27586V10ZM3.59639 6.36676C3.74981 6.48122 3.96097 6.44106 4.06804 6.27706C4.17512 6.11312 4.13755 5.88738 3.98414 5.77296L3.59639 6.36676ZM3.37428 4.85476L3.05674 4.72869C3.05297 4.73952 3.04969 4.75054 3.04691 4.76171L3.37428 4.85476ZM3.75142 3.76952L4.06897 3.89559C4.07224 3.8862 4.07513 3.87666 4.07766 3.86701L3.75142 3.76952ZM4.25231 3.36207V3H4.25133L4.25231 3.36207ZM8.7477 3.36207L8.74869 3H8.7477V3.36207ZM9.24859 3.76952L8.92236 3.86701C8.92489 3.87664 8.92778 3.88616 8.93103 3.89554L9.24859 3.76952ZM9.62573 4.85524L9.95314 4.76223C9.95034 4.75107 9.94709 4.74005 9.9433 4.72922L9.62573 4.85524ZM9.01621 5.77307C8.86283 5.88762 8.82539 6.11331 8.93252 6.27726C9.0397 6.44115 9.2509 6.48117 9.40424 6.36666L9.01621 5.77307ZM5.25817 9.63793C5.25817 9.83789 5.40982 10 5.5969 10C5.78398 10 5.93565 9.83789 5.93565 9.63793H5.25817ZM7.0648 9.63793C7.0648 9.83789 7.21647 10 7.40355 10C7.59063 10 7.7423 9.83789 7.7423 9.63793H7.0648ZM5.5969 9.27586C5.40982 9.27586 5.25817 9.43797 5.25817 9.63793C5.25817 9.83789 5.40982 10 5.5969 10V9.27586ZM7.40355 10C7.59063 10 7.7423 9.83789 7.7423 9.63793C7.7423 9.43797 7.59063 9.27586 7.40355 9.27586V10ZM7.20351 5.14008C7.20577 5.34003 7.35924 5.50017 7.54632 5.49777C7.73336 5.49536 7.88322 5.33132 7.88096 5.13137L7.20351 5.14008ZM7.8778 4.8504C7.87554 4.65046 7.72206 4.49031 7.53498 4.49271C7.34791 4.49512 7.19809 4.65916 7.20035 4.85911L7.8778 4.8504ZM7.87206 5.04725C7.82635 4.85334 7.64221 4.73577 7.46082 4.78463C7.27939 4.8335 7.16936 5.0303 7.21512 5.2242L7.87206 5.04725ZM7.61448 5.43648L7.28598 5.52496L7.28671 5.52783L7.61448 5.43648ZM9.40279 6.36772C9.55667 6.25408 9.59524 6.02859 9.48892 5.86406C9.38256 5.69953 9.17158 5.65831 9.01766 5.77198L9.40279 6.36772ZM9.54895 6.06634C9.54714 5.86638 9.39403 5.70587 9.20695 5.70781C9.01987 5.70975 8.86969 5.87343 8.8715 6.07339L9.54895 6.06634ZM9.23369 8.66083L8.89499 8.66435V8.66517L9.23369 8.66083ZM7.40355 9.27586C7.21647 9.27586 7.0648 9.43797 7.0648 9.63793C7.0648 9.83789 7.21647 10 7.40355 10V9.27586ZM5.11951 5.13572C5.11951 5.95077 5.73768 6.61152 6.50023 6.61152V5.88738C6.11184 5.88738 5.79699 5.55085 5.79699 5.13572H5.11951ZM6.50023 6.61152C7.26281 6.61152 7.88096 5.95077 7.88096 5.13572H7.20346C7.20346 5.55085 6.88861 5.88738 6.50023 5.88738V6.61152ZM5.79694 5.14194L5.80146 4.86098L5.12407 4.84854L5.11956 5.12951L5.79694 5.14194ZM5.12968 5.04765L5.05877 5.34985L5.71591 5.52601L5.78682 5.2238L5.12968 5.04765ZM5.05958 5.34646C5.00182 5.58291 4.83967 5.77432 4.62526 5.85914L4.86046 6.53823C5.28238 6.3713 5.60146 5.9947 5.7151 5.5294L5.05958 5.34646ZM4.62526 5.85914C4.41084 5.94401 4.17118 5.91157 3.98329 5.77233L3.59724 6.36739C3.96694 6.6414 4.43855 6.70522 4.86046 6.53823L4.62526 5.85914ZM3.45153 6.06614L3.42669 8.65711L4.10415 8.66454L4.12899 6.07358L3.45153 6.06614ZM3.4267 8.65648C3.42271 9.01131 3.55182 9.3531 3.78518 9.60554L4.26709 9.09656C4.16102 8.98181 4.10234 8.82646 4.10415 8.66517L3.4267 8.65648ZM3.78518 9.60554C4.01855 9.85797 4.33676 10 4.66877 10L4.66875 9.27586C4.51783 9.27586 4.37317 9.21132 4.26709 9.09656L3.78518 9.60554ZM4.66877 10H5.5969V9.27586H4.66875L4.66877 10ZM3.98414 5.77296C3.73711 5.58868 3.62424 5.25898 3.70165 4.94781L3.04691 4.76171C2.89632 5.36699 3.11588 6.00831 3.59639 6.36676L3.98414 5.77296ZM3.69183 4.98083L4.06897 3.89559L3.43387 3.64344L3.05674 4.72869L3.69183 4.98083ZM4.07766 3.86701C4.0997 3.78274 4.17143 3.72439 4.25329 3.72414L4.25133 3C3.86629 3.00119 3.52886 3.27567 3.42518 3.67203L4.07766 3.86701ZM4.25231 3.72414H8.7477V3H4.25231V3.72414ZM8.74675 3.72414C8.82859 3.72439 8.90032 3.78274 8.92236 3.86701L9.57483 3.67202C9.47117 3.27567 9.13374 3.00119 8.74869 3L8.74675 3.72414ZM8.93103 3.89554L9.30817 4.98127L9.9433 4.72922L9.56616 3.64349L8.93103 3.89554ZM9.29837 4.94825C9.37569 5.25925 9.26296 5.58875 9.01621 5.77307L9.40424 6.36666C9.88431 6.00812 10.1035 5.36718 9.95314 4.76223L9.29837 4.94825ZM5.93565 9.63793V8.18966H5.25817V9.63793H5.93565ZM5.93565 8.18966C5.93565 8.12299 5.98623 8.06897 6.04856 8.06897V7.34483C5.61203 7.34483 5.25817 7.72307 5.25817 8.18966H5.93565ZM6.04856 8.06897H6.95189V7.34483H6.04856V8.06897ZM6.95189 8.06897C7.01426 8.06897 7.0648 8.12299 7.0648 8.18966H7.7423C7.7423 7.72307 7.38842 7.34483 6.95189 7.34483V8.06897ZM7.0648 8.18966V9.63793H7.7423V8.18966H7.0648ZM5.5969 10H7.40355V9.27586H5.5969V10ZM7.88096 5.13137L7.8778 4.8504L7.20035 4.85911L7.20351 5.14008L7.88096 5.13137ZM7.21512 5.2242L7.28598 5.52496L7.94297 5.34801L7.87206 5.04725L7.21512 5.2242ZM7.28671 5.52783C7.40012 5.99281 7.71868 6.36937 8.14012 6.53664L8.37598 5.85783C8.1618 5.77281 7.99993 5.58144 7.94229 5.34514L7.28671 5.52783ZM8.14012 6.53664C8.56157 6.70397 9.03288 6.64092 9.40279 6.36772L9.01766 5.77198C8.82968 5.91079 8.59016 5.94285 8.37598 5.85783L8.14012 6.53664ZM8.8715 6.07339L8.89499 8.66435L9.57243 8.6573L9.54895 6.06634L8.8715 6.07339ZM8.89499 8.66517C8.89679 8.82646 8.83812 8.98181 8.73203 9.09656L9.21395 9.60554C9.44732 9.3531 9.57641 9.01131 9.57243 8.65648L8.89499 8.66517ZM8.73203 9.09656C8.62598 9.21132 8.48131 9.27586 8.33041 9.27586L8.33036 10C8.66238 10 8.98058 9.85797 9.21395 9.60554L8.73203 9.09656ZM8.33041 9.27586H7.40355V10H8.33036L8.33041 9.27586Z" fill="#222222"/>
</svg>
