<svg width="13" height="13" viewBox="0 0 13 13" fill="none" xmlns="http://www.w3.org/2000/svg">
<path d="M9.8913 0.565216H3.10869C1.70397 0.565216 0.565216 1.70397 0.565216 3.10869V9.8913C0.565216 11.296 1.70397 12.4348 3.10869 12.4348H9.8913C11.296 12.4348 12.4348 11.296 12.4348 9.8913V3.10869C12.4348 1.70397 11.296 0.565216 9.8913 0.565216Z" stroke="#222222"/>
<path d="M9.91975 6.20209L6.7975 3.07984C6.73575 3.01809 6.65707 2.97604 6.57141 2.959C6.48576 2.94196 6.39698 2.95071 6.31629 2.98413C6.23561 3.01755 6.16664 3.07414 6.11812 3.14675C6.0696 3.21936 6.0437 3.30473 6.04369 3.39206V4.45812L5.05353 5.4483H3.98747C3.90014 5.44831 3.81478 5.47421 3.74217 5.52273C3.66956 5.57125 3.61297 5.64021 3.57955 5.7209C3.54613 5.80158 3.53739 5.89036 3.55442 5.97601C3.57145 6.06166 3.6135 6.14034 3.67525 6.20209L4.92417 7.45102L3.36302 9.01212C3.3213 9.05296 3.2881 9.10167 3.26532 9.15543C3.24255 9.20919 3.23066 9.26693 3.23035 9.32532C3.23004 9.3837 3.24131 9.44157 3.26351 9.49557C3.28571 9.54957 3.3184 9.59863 3.35968 9.63991C3.40097 9.6812 3.45003 9.71388 3.50403 9.73608C3.55803 9.75828 3.61589 9.76955 3.67427 9.76924C3.73266 9.76893 3.7904 9.75704 3.84416 9.73427C3.89792 9.7115 3.94663 9.67829 3.98747 9.63657L5.5486 8.07544L6.79752 9.32437C6.85928 9.38612 6.93796 9.42818 7.02361 9.44522C7.10927 9.46226 7.19806 9.45352 7.27874 9.4201C7.35943 9.38668 7.4284 9.33008 7.47692 9.25746C7.52544 9.18485 7.55134 9.09948 7.55134 9.01214V7.94607L8.54148 6.95591H9.60752C9.69486 6.95591 9.78023 6.93001 9.85285 6.88149C9.92546 6.83297 9.98206 6.764 10.0155 6.68332C10.0489 6.60263 10.0576 6.51384 10.0406 6.42818C10.0236 6.34253 9.98151 6.26385 9.91975 6.20209ZM8.35863 6.07272C8.30064 6.07271 8.24321 6.08413 8.18964 6.10633C8.13606 6.12853 8.08739 6.16107 8.0464 6.20209L6.79748 7.45102C6.75645 7.492 6.72391 7.54068 6.70171 7.59425C6.67951 7.64782 6.66809 7.70525 6.6681 7.76324V7.94609L5.05353 6.33145H5.23635C5.29434 6.33146 5.35176 6.32004 5.40533 6.29784C5.45891 6.27564 5.50758 6.2431 5.54857 6.20208L6.79749 4.95315C6.83851 4.91217 6.87105 4.8635 6.89324 4.80993C6.91544 4.75636 6.92686 4.69894 6.92685 4.64095V4.45812L8.54148 6.07272H8.35863Z" fill="#222222"/>
</svg>
