<?xml version="1.0" encoding="utf-8"?>
<!-- Generator: Adobe Illustrator 28.2.0, SVG Export Plug-In . SVG Version: 6.00 Build 0)  -->
<svg version="1.1" id="Layer_1" xmlns="http://www.w3.org/2000/svg" xmlns:xlink="http://www.w3.org/1999/xlink" x="0px" y="0px"
	 viewBox="0 0 566.9 566.9" style="enable-background:new 0 0 566.9 566.9;" xml:space="preserve">
<style type="text/css">
	.st0{fill:#EDEDED;}
	.st1{fill:#55CD6C;}
	.st2{fill:#FEFEFE;}
</style>
<path class="st0" d="M28.3,538.6L63.5,411c-22.9-39.6-35.2-83.6-35.2-129.3c0-139,114.4-253.4,254.2-253.4s256,114.4,256,253.4
	s-116.1,256.9-256,256.9c-44,0-86.2-14.1-124-35.2L28.3,538.6z"/>
<path class="st1" d="M152.4,478.2l8.9,4.9c36.4,22.6,78.7,36.4,122.9,36.4c128.8,0,236.1-107.2,236.1-238S413,47.4,283.2,47.4
	S48.1,151.7,48.1,281.5c0,45.2,12.8,89.5,36.4,126.9l5.9,8.9l-33,93L152.4,478.2z"/>
<path class="st2" d="M207.5,149.7l-18.7-1c-5.9,0-11.8,2-15.7,5.9c-8.9,7.9-23.6,22.6-27.5,42.3c-6.9,29.5,3.9,64.9,29.5,100.3
	s74.8,92.5,161.3,117c27.5,7.9,49.2,3,66.9-7.9c13.8-8.9,22.6-22.6,25.6-37.4l3-13.8c1-3.9-1-8.9-4.9-10.8l-62-28.5
	c-3.9-2-8.9-1-11.8,3l-24.6,31.5c-2,2-4.9,3-7.9,2c-16.7-5.9-72.8-29.5-103.3-88.5c-1-3-1-5.9,1-7.9l23.6-26.6c2-3,3-6.9,2-9.8
	l-28.5-63.9C214.3,152.7,211.4,149.7,207.5,149.7"/>
</svg>
