<?xml version="1.0" encoding="utf-8"?>
<!-- Generator: Adobe Illustrator 28.2.0, SVG Export Plug-In . SVG Version: 6.00 Build 0)  -->
<svg version="1.1" id="Layer_1" xmlns="http://www.w3.org/2000/svg" xmlns:xlink="http://www.w3.org/1999/xlink" x="0px" y="0px"
	 viewBox="0 0 20 20" style="enable-background:new 0 0 20 20;" xml:space="preserve">
<style type="text/css">
	.st0{fill:#FFFFFF;}
</style>
<path class="st0" d="M0.5,19.5l1.3-4.7c-0.9-1.5-1.3-3.1-1.3-4.8c0-5.3,4.3-9.5,9.5-9.5s9.5,4.3,9.5,9.5s-4.3,9.5-9.5,9.5
	c-1.7,0-3.3-0.4-4.8-1.3L0.5,19.5z M6,4.8c-0.1,0-0.3,0-0.4,0.1C5.5,4.9,5.4,5,5.3,5.1C5.2,5.2,5.1,5.4,5,5.5C4.6,6,4.4,6.6,4.4,7.3
	c0,0.5,0.1,1.1,0.4,1.6c0.5,1,1.2,2.1,2.2,3c0.2,0.2,0.5,0.5,0.7,0.7c1.2,1.1,2.7,1.9,4.3,2.3l0.6,0.1c0.2,0,0.4,0,0.6,0
	c0.3,0,0.6-0.1,0.9-0.3c0.2-0.1,0.3-0.1,0.4-0.2c0,0,0,0,0.1-0.1c0.1-0.1,0.2-0.2,0.4-0.3c0.1-0.1,0.2-0.2,0.2-0.3
	c0.1-0.2,0.2-0.5,0.2-0.8c0-0.2,0-0.3,0-0.4c0-0.1-0.1-0.2-0.2-0.3l-0.6-0.3c0,0-1-0.4-1.6-0.7c-0.1,0-0.1,0-0.2,0
	c-0.2,0-0.3,0-0.4,0.1v0c0,0-0.1,0.1-0.9,1c-0.1,0.1-0.3,0.2-0.4,0.1c-0.1,0-0.1,0-0.2-0.1c-0.1-0.1-0.2-0.1-0.3-0.1l0,0
	C10,12,9.4,11.6,8.9,11.2c-0.1-0.1-0.3-0.3-0.4-0.4c-0.4-0.4-0.8-0.9-1.1-1.4L7.3,9.3c0-0.1-0.1-0.1-0.1-0.2c0-0.2,0.1-0.3,0.1-0.3
	s0.3-0.3,0.4-0.5C7.8,8.2,7.9,8,8,7.9c0.1-0.2,0.2-0.4,0.1-0.6C7.8,6.5,7.4,5.8,7.1,5C7,4.9,6.8,4.8,6.7,4.8c-0.1,0-0.1,0-0.2,0
	C6.3,4.7,6.2,4.7,6,4.8L6,4.8z"/>
</svg>
